<?xml version="1.0" encoding="UTF-8" standalone="no"?>
<svg
   xmlns:dc="http://purl.org/dc/elements/1.1/"
   xmlns:cc="http://creativecommons.org/ns#"
   xmlns:rdf="http://www.w3.org/1999/02/22-rdf-syntax-ns#"
   xmlns:svg="http://www.w3.org/2000/svg"
   xmlns="http://www.w3.org/2000/svg"
   xmlns:sodipodi="http://sodipodi.sourceforge.net/DTD/sodipodi-0.dtd"
   xmlns:inkscape="http://www.inkscape.org/namespaces/inkscape"
   width="407.98947"
   height="248.44942"
   id="svg3155"
   version="1.1"
   inkscape:version="0.48.2 r9819"
   sodipodi:docname="webcast_flow.svg">
  <metadata
     id="metadata3285">
    <rdf:RDF>
      <cc:Work
         rdf:about="">
        <dc:format>image/svg+xml</dc:format>
        <dc:type
           rdf:resource="http://purl.org/dc/dcmitype/StillImage" />
      </cc:Work>
    </rdf:RDF>
  </metadata>
  <defs
     id="defs3283" />
  <sodipodi:namedview
     pagecolor="#ffffff"
     bordercolor="#666666"
     borderopacity="1"
     objecttolerance="10"
     gridtolerance="10"
     guidetolerance="10"
     inkscape:pageopacity="0"
     inkscape:pageshadow="2"
     inkscape:window-width="1440"
     inkscape:window-height="767"
     id="namedview3281"
     showgrid="true"
     inkscape:zoom="2.5623736"
     inkscape:cx="175.29911"
     inkscape:cy="142.66399"
     inkscape:window-x="0"
     inkscape:window-y="0"
     inkscape:window-maximized="1"
     inkscape:current-layer="g3217"
     fit-margin-top="0"
     fit-margin-left="0"
     fit-margin-right="0"
     fit-margin-bottom="0">
    <inkscape:grid
       type="xygrid"
       id="grid4071"
       empspacing="5"
       visible="true"
       enabled="true"
       snapvisiblegridlinesonly="true" />
  </sodipodi:namedview>
  <g
     transform="matrix(0.41841675,0.24310119,-0.24157302,0.42106361,120.46338,64.834776)"
     id="g3159"
     style="fill:#f5c02e;fill-opacity:1">
    <polygon
       points="145,15 145,0 170,25 145,50 145,35 0,35 0,15 "
       id="polygon3161"
       style="fill:#f5c02e;fill-opacity:1;stroke:#004c67;stroke-width:2" />
    <g
       id="g3163"
       style="fill:#f5c02e;fill-opacity:1" />
  </g>
  <g
     transform="matrix(0.48314605,0,0,0.48620238,185.25914,107.69383)"
     id="g3165">
    <rect
       style="fill:#dad2cc;stroke:#422000;stroke-width:2"
       y="0"
       x="0"
       width="120"
       height="80"
       id="rect3167" />
    <g
       transform="translate(0,51)"
       id="g3169">
      <text
         x="60"
         style="text-anchor:middle"
         y="-4"
         id="text3171">
        <tspan
           style="font-size:24px;fill:#2e1600;font-family:Arial"
           xml:space="preserve"
           font-size="24"
           id="tspan3173">Encoder</tspan>      </text>
    </g>
  </g>
  <g
     transform="matrix(0.41841675,-0.24310119,0.24157302,0.42106361,108.38473,171.7993)"
     id="g3175">
    <polygon
       points="145,15 145,0 170,25 145,50 145,35 0,35 0,15 "
       id="polygon3177"
       style="fill:#f5c02e;fill-opacity:1;stroke:#004c67;stroke-width:2" />
    <g
       id="g3179" />
  </g>
  <g
     transform="matrix(0.48314605,0,0,0.48620238,243.23667,114.98686)"
     id="g3181"
     style="fill:#e8a9ec;fill-opacity:1">
    <polygon
       points="185,15 185,0 210,25 185,50 185,35 0,35 0,15 "
       id="polygon3183"
       style="fill:#e8a9ec;fill-opacity:1;stroke:#004c67;stroke-width:2" />
    <g
       id="g3185"
       style="fill:#e8a9ec;fill-opacity:1" />
  </g>
  <g
     transform="matrix(0.48314605,0,0,0.48620238,344.69734,102.46715)"
     id="g3187"
     style="fill-opacity:1">
    <path
       inkscape:connector-curvature="0"
       d="m 0,0 q 0,-12.6875 65,-12.6875 65,0 65,12.6875 l 0,88.8125 Q 130,101.5 65,101.5 0,101.5 0,88.8125 L 0,0 z"
       id="path3189"
       style="fill:#cbdbe0;fill-opacity:1;stroke:#004c67;stroke-width:2" />
    <path
       inkscape:connector-curvature="0"
       d="m 0,0 q 0,12.6875 65,12.6875 65,0 65,-12.6875"
       id="path3191"
       style="fill:none;stroke:#004c67;stroke-width:2" />
    <path
       inkscape:connector-curvature="0"
       d="m 0,6.34375 q 0,12.6875 65,12.6875 65,0 65,-12.6875"
       id="path3193"
       style="fill:none;stroke:#004c67;stroke-width:2" />
    <path
       inkscape:connector-curvature="0"
       d="m 0,12.6875 q 0,12.6875 65,12.6875 65,0 65,-12.6875"
       id="path3195"
       style="fill:none;stroke:#004c67;stroke-width:2" />
    <g
       transform="translate(0,47.75)"
       id="g3197"
       style="fill-opacity:1">
      <text
         x="65"
         style="text-anchor:middle;fill-opacity:1"
         y="-4"
         id="text3199">
        <tspan
           xml:space="preserve"
           font-size="24"
           id="tspan3201"
           style="font-size:24px;fill:#003547;fill-opacity:1;font-family:Arial">Streaming</tspan>      </text>
      <text
         x="65"
         style="text-anchor:middle;fill-opacity:1"
         y="25.6"
         id="text3203">
        <tspan
           xml:space="preserve"
           font-size="24"
           id="tspan3205"
           style="font-size:24px;fill:#003547;fill-opacity:1;font-family:Arial">Server</tspan>      </text>
    </g>
  </g>
  <g
     transform="matrix(0.48314605,0,0,0.48620238,67.854654,50.321946)"
     id="g3207">
    <g
       transform="translate(0,31)"
       id="g3209">
      <text
         x="80"
         style="text-anchor:middle"
         y="-4"
         id="text3211">
        <tspan
           style="font-size:24px;fill:#2a0002;font-family:Arial"
           xml:space="preserve"
           font-size="24"
           id="tspan3213">Local Files</tspan>      </text>
    </g>
  </g>
  <g
     transform="matrix(0.48314605,0,0,0.48620238,63.989485,191.07753)"
     id="g3215">
    <g
       transform="translate(0,24.5)"
       id="g3217">
      <text
         x="74.533386"
         style="font-size:12px;text-anchor:middle"
         y="-5.2243085"
         id="text3219">
        <tspan
           style="font-size:24px;fill:#2a0002;font-family:Arial"
           xml:space="preserve"
           font-size="24"
           id="tspan3221">Live Media</tspan>      </text>
    </g>
  </g>
  <g
     transform="matrix(0,-0.48620238,0.48314605,0,199.75353,106.96452)"
     id="g3223"
     style="fill:#7cc58c;fill-opacity:1">
    <polygon
       points="25,0 25,15 110,15 110,35 25,35 25,50 0,25 "
       id="polygon3225"
       style="fill:#7cc58c;fill-opacity:1;stroke:#004c67;stroke-width:2" />
    <g
       id="g3227"
       style="fill:#7cc58c;fill-opacity:1" />
  </g>
  <g
     transform="matrix(0.48314605,0,0,0.48620238,177.04566,34.76347)"
     id="g3229">
    <g
       transform="translate(0,24.5)"
       id="g3231">
      <text
         x="75"
         style="text-anchor:middle"
         y="-4"
         id="text3233">
        <tspan
           style="font-size:24px;fill:#2a0002;font-family:Arial"
           xml:space="preserve"
           font-size="24"
           id="tspan3235">Met</tspan>        <tspan
           style="font-size:24px;fill:#2a0002;font-family:Arial"
           xml:space="preserve"
           font-size="24"
           id="tspan3237">adata</tspan>      </text>
    </g>
  </g>
  <g
     transform="matrix(0.48314605,0,0,0.48620238,252.89959,106.96452)"
     id="g3239">
    <g
       transform="translate(0,24.5)"
       id="g3241">
      <text
         x="75"
         style="text-anchor:middle"
         y="-4"
         id="text3243">
        <tspan
           style="font-size:24px;fill:#2a0002;font-family:Arial"
           xml:space="preserve"
           font-size="24"
           id="tspan3245">Websocket</tspan>      </text>
    </g>
  </g>
  <g
     transform="matrix(0.48314605,0,0,0.50621073,245.16925,246.50461)"
     id="g3247">
    <path
       d="M 0,0 0,-486"
       id="path3249"
       inkscape:connector-curvature="0"
       style="fill:none;stroke:#000000;stroke-width:2;stroke-dasharray:3, 6" />
    <g
       transform="translate(0,-243)"
       id="g3251" />
  </g>
  <g
     transform="matrix(0.48314605,0,0,0.48620238,151.43892,223.65309)"
     id="g3253">
    <g
       transform="translate(0,37.5)"
       id="g3255">
      <text
         x="75"
         style="text-anchor:middle"
         y="-7"
         id="text3257">
        <tspan
           style="font-size:36px;fill:#2a0002;font-family:Arial"
           xml:space="preserve"
           font-size="36"
           id="tspan3259">Browser</tspan>      </text>
    </g>
  </g>
  <g
     transform="matrix(0.48314605,0,0,0.48620238,139.84342,-4e-7)"
     id="g3261">
    <path
       style="fill:none;stroke:#000000;stroke-width:2;stroke-dasharray:3, 6"
       inkscape:connector-curvature="0"
       d="M 0,0 Q 0,128.5 46.5,128.5 93,128.5 93,257"
       id="path3263" />
    <g
       id="g3265" />
  </g>
  <g
     transform="matrix(0.48314605,0,0,0.48620238,132.59622,248.44942)"
     id="g3267">
    <path
       style="fill:none;stroke:#000000;stroke-width:2;stroke-dasharray:3, 6"
       inkscape:connector-curvature="0"
       d="m 0,0 q 0,-127.5 54,-127.5 54,0 54,-127.5"
       id="path3269" />
    <g
       id="g3271" />
  </g>
  <g
     transform="matrix(0.48314605,0,0,0.48620238,-7.5161299,204.205)"
     id="g3273">
    <g
       transform="translate(0,78.5)"
       id="g3275">
      <text
         x="135"
         style="text-anchor:middle"
         y="-7"
         id="text3277">
        <tspan
           style="font-size:36px;fill:#2a0002;font-family:Arial"
           xml:space="preserve"
           font-size="36"
           id="tspan3279">Web Audio API</tspan>      </text>
    </g>
  </g>
</svg>
